<svg width="30" height="30" viewBox="0 0 30 30" fill="none" xmlns="http://www.w3.org/2000/svg">
<path d="M15 6.25L13.9393 5.18934L15 4.12868L16.0607 5.18934L15 6.25ZM16.5 17.5C16.5 18.3284 15.8284 19 15 19C14.1716 19 13.5 18.3284 13.5 17.5L16.5 17.5ZM7.68934 11.4393L13.9393 5.18934L16.0607 7.31066L9.81066 13.5607L7.68934 11.4393ZM16.0607 5.18934L22.3107 11.4393L20.1893 13.5607L13.9393 7.31066L16.0607 5.18934ZM16.5 6.25L16.5 17.5L13.5 17.5L13.5 6.25L16.5 6.25Z" fill="#37313C"/>
<path d="M8.75 23.75L8.75 25.25H8.75V23.75ZM21.25 23.75V22.25V23.75ZM8.75 25.25L21.25 25.25V22.25L8.75 22.25V25.25ZM7.75 21.25V20H4.75V21.25H7.75ZM25.25 21.25V20H22.25V21.25H25.25ZM21.25 25.25C23.4591 25.25 25.25 23.4591 25.25 21.25H22.25C22.25 21.8023 21.8023 22.25 21.25 22.25V25.25ZM8.75 22.25C8.19771 22.25 7.75 21.8023 7.75 21.25H4.75C4.75 23.4591 6.54086 25.25 8.75 25.25L8.75 22.25Z" fill="#37313C"/>
</svg>
