<svg width="34" height="34" viewBox="0 0 34 34" fill="none" xmlns="http://www.w3.org/2000/svg">
<path d="M4.25 13.9601C4.25 12.5094 5.42599 11.3334 6.87664 11.3334V11.3334C7.87154 11.3334 8.78105 10.7713 9.22599 9.88144L10.3889 7.55564C10.7685 6.79651 10.9582 6.41694 11.2583 6.15647C11.4211 6.01512 11.6057 5.90103 11.8049 5.81862C12.1721 5.66675 12.5964 5.66675 13.4452 5.66675H20.5548C21.4036 5.66675 21.8279 5.66675 22.1951 5.81862C22.3943 5.90103 22.5789 6.01512 22.7417 6.15647C23.0418 6.41694 23.2315 6.79651 23.6111 7.55564L24.774 9.88144C25.2189 10.7713 26.1285 11.3334 27.1234 11.3334V11.3334C28.574 11.3334 29.75 12.5094 29.75 13.9601V22.3334C29.75 25.1618 29.75 26.5761 28.8713 27.4547C27.9926 28.3334 26.5784 28.3334 23.75 28.3334H10.25C7.42157 28.3334 6.00736 28.3334 5.12868 27.4547C4.25 26.5761 4.25 25.1618 4.25 22.3334V13.9601Z" stroke="#37313C" stroke-width="2"/>
<path d="M21.6668 18.4167C21.6668 20.994 19.5775 23.0833 17.0002 23.0833C14.4228 23.0833 12.3335 20.994 12.3335 18.4167C12.3335 15.8393 14.4228 13.75 17.0002 13.75C19.5775 13.75 21.6668 15.8393 21.6668 18.4167Z" stroke="#37313C" stroke-width="2"/>
</svg>
