<svg width="31" height="31" viewBox="0 0 31 31" fill="none" xmlns="http://www.w3.org/2000/svg">
<path d="M8.52083 8.45833C7.96855 8.45833 7.52083 8.90605 7.52083 9.45833C7.52083 10.0106 7.96855 10.4583 8.52083 10.4583V8.45833ZM13.6912 4.62391L12.7628 4.9953L13.6912 4.62391ZM14.2079 5.91557L15.1364 5.54418L14.2079 5.91557ZM26.25 14.625V18.5H28.25V14.625H26.25ZM22.0833 22.6667H9.16667V24.6667H22.0833V22.6667ZM5 18.5V5.58333H3V18.5H5ZM6.58333 4H11.2927V2H6.58333V4ZM12.7628 4.9953L13.2794 6.28696L15.1364 5.54418L14.6197 4.25252L12.7628 4.9953ZM11.8093 8.45833H8.52083V10.4583H11.8093V8.45833ZM8.52083 10.4583H22.0833V8.45833H8.52083V10.4583ZM11.2927 4C11.7382 4 11.9918 4.0014 12.1775 4.02178C12.3386 4.03947 12.3497 4.06302 12.3307 4.05015L13.4519 2.39401C13.1049 2.15906 12.7403 2.07157 12.3958 2.03374C12.0759 1.9986 11.6942 2 11.2927 2V4ZM14.6197 4.25252C14.4706 3.8797 14.3301 3.52478 14.1787 3.24081C14.0156 2.93504 13.799 2.62896 13.4519 2.39401L12.3307 4.05015C12.3117 4.03728 12.3377 4.03887 12.4139 4.18186C12.5018 4.34667 12.5973 4.58162 12.7628 4.9953L14.6197 4.25252ZM13.2794 6.28696C13.6127 7.12005 13.8181 7.64068 13.9094 8.02402C13.9959 8.38736 13.9191 8.38863 13.9587 8.33018L15.6148 9.45144C16.0386 8.82547 15.9934 8.1417 15.855 7.56058C15.7213 6.99947 15.4452 6.31624 15.1364 5.54418L13.2794 6.28696ZM11.8093 10.4583C12.6409 10.4583 13.3778 10.4609 13.9484 10.3767C14.5393 10.2894 15.191 10.0774 15.6148 9.45144L13.9587 8.33018C13.9983 8.27173 14.0256 8.34355 13.6561 8.39813C13.2663 8.45572 12.7066 8.45833 11.8093 8.45833V10.4583ZM9.16667 22.6667C7.9206 22.6667 7.08665 22.6645 6.4653 22.581C5.87271 22.5013 5.6253 22.3645 5.46375 22.2029L4.04953 23.6171C4.64462 24.2122 5.38443 24.4537 6.1988 24.5632C6.9844 24.6688 7.97714 24.6667 9.16667 24.6667V22.6667ZM3 18.5C3 19.6895 2.99788 20.6823 3.1035 21.4679C3.21299 22.2822 3.45444 23.022 4.04953 23.6171L5.46375 22.2029C5.3022 22.0414 5.16533 21.794 5.08566 21.2014C5.00212 20.58 5 19.7461 5 18.5H3ZM26.25 18.5C26.25 19.7461 26.2479 20.58 26.1643 21.2014C26.0847 21.794 25.9478 22.0414 25.7863 22.2029L27.2005 23.6171C27.7956 23.022 28.037 22.2822 28.1465 21.4679C28.2521 20.6823 28.25 19.6895 28.25 18.5H26.25ZM22.0833 24.6667C23.2729 24.6667 24.2656 24.6688 25.0512 24.5632C25.8656 24.4537 26.6054 24.2122 27.2005 23.6171L25.7863 22.2029C25.6247 22.3645 25.3773 22.5013 24.7847 22.581C24.1633 22.6645 23.3294 22.6667 22.0833 22.6667V24.6667ZM28.25 14.625C28.25 13.4355 28.2521 12.4427 28.1465 11.6571C28.037 10.8428 27.7956 10.103 27.2005 9.50787L25.7863 10.9221C25.9478 11.0836 26.0847 11.331 26.1643 11.9236C26.2479 12.545 26.25 13.3789 26.25 14.625H28.25ZM22.0833 10.4583C23.3294 10.4583 24.1633 10.4605 24.7847 10.544C25.3773 10.6237 25.6247 10.7605 25.7863 10.9221L27.2005 9.50787C26.6054 8.91278 25.8656 8.67132 25.0512 8.56183C24.2656 8.45621 23.2729 8.45833 22.0833 8.45833V10.4583ZM5 5.58333C5 4.94617 5.00212 4.56889 5.03837 4.29927C5.07075 4.05842 5.11304 4.05782 5.08543 4.08543L3.67121 2.67121C3.26528 3.07714 3.11841 3.57015 3.05621 4.03278C2.99788 4.46664 3 5.00271 3 5.58333H5ZM6.58333 2C6.00271 2 5.46664 1.99788 5.03278 2.05621C4.57015 2.11841 4.07714 2.26528 3.67121 2.67121L5.08543 4.08543C5.05782 4.11304 5.05842 4.07075 5.29927 4.03837C5.56889 4.00212 5.94617 4 6.58333 4V2Z" fill="#37313C"/>
</svg>
