<svg width="31" height="31" viewBox="0 0 31 31" fill="none" xmlns="http://www.w3.org/2000/svg">
<path d="M3.875 11.875C3.875 8.10376 3.875 6.21815 5.04657 5.04657C6.21815 3.875 8.10376 3.875 11.875 3.875H19.125C22.8962 3.875 24.7819 3.875 25.9534 5.04657C27.125 6.21815 27.125 8.10376 27.125 11.875V19.125C27.125 22.8962 27.125 24.7819 25.9534 25.9534C24.7819 27.125 22.8962 27.125 19.125 27.125H11.875C8.10376 27.125 6.21815 27.125 5.04657 25.9534C3.875 24.7819 3.875 22.8962 3.875 19.125V11.875Z" stroke="#37313C" stroke-width="2"/>
<path fill-rule="evenodd" clip-rule="evenodd" d="M25.125 18.5438L24.2022 17.621L24.1557 17.5745L24.1556 17.5744C23.5288 16.9476 22.9888 16.4075 22.4981 16.0331C21.9723 15.6319 21.3874 15.3281 20.6667 15.3281C19.9459 15.3281 19.361 15.6319 18.8352 16.0331C18.3446 16.4075 17.8045 16.9476 17.1777 17.5744L17.1777 17.5745L17.1311 17.621L16.8817 17.8704C16.3853 18.3669 16.0912 18.6573 15.8628 18.8268L15.8528 18.8342L15.8463 18.8237C15.6973 18.5814 15.532 18.2025 15.2555 17.5572L14.8715 16.6612L14.84 16.5879C14.3397 15.4202 13.9202 14.4414 13.4875 13.7381C13.035 13.0026 12.4445 12.3604 11.5177 12.1819C10.5909 12.0034 9.80413 12.3804 9.11081 12.8952C8.44783 13.3875 7.69486 14.1406 6.79665 15.0388L6.74021 15.0953L5.875 15.9605V18.7889L8.15443 16.5095C9.12407 15.5399 9.77307 14.8946 10.3032 14.5009C10.8168 14.1195 11.0243 14.1236 11.1395 14.1458C11.2547 14.168 11.4489 14.2413 11.7841 14.7861C12.1301 15.3485 12.493 16.1887 13.0332 17.4491L13.4172 18.3451L13.444 18.4075C13.6843 18.9686 13.9068 19.488 14.1429 19.8717C14.3985 20.2871 14.7928 20.7504 15.4591 20.8788C16.1254 21.0071 16.6636 20.7233 17.0552 20.4325C17.4169 20.164 17.8164 19.7644 18.2479 19.3327L18.2959 19.2846L18.5453 19.0352C19.232 18.3486 19.6774 17.9062 20.0484 17.6232C20.3963 17.3577 20.559 17.3281 20.6667 17.3281C20.7743 17.3281 20.937 17.3577 21.285 17.6232C21.656 17.9062 22.1013 18.3486 22.788 19.0352L25.1119 21.3592C25.1241 20.7315 25.125 19.9975 25.125 19.1248V18.5438ZM15.7161 18.9194C15.7161 18.9193 15.7176 18.9187 15.7205 18.9177C15.7175 18.919 15.716 18.9195 15.7161 18.9194ZM15.9447 18.9609C15.947 18.9628 15.9482 18.964 15.9482 18.9641C15.9482 18.9642 15.947 18.9632 15.9447 18.9609Z" fill="#37313C"/>
<circle cx="21.3125" cy="9.6875" r="1.9375" fill="#37313C"/>
</svg>
